<svg width="24" height="32" fill="none" xmlns="http://www.w3.org/2000/svg"><path d="M21 4c1.656 0 3 1.344 3 3v22c0 1.656-1.344 3-3 3H3c-1.656 0-3-1.344-3-3V7c0-1.656 1.344-3 3-3h5c0-2.206 1.794-4 4-4s4 1.794 4 4h5zM6 26.5c.831 0 1.5-.669 1.5-1.5s-.669-1.5-1.5-1.5-1.5.669-1.5 1.5.669 1.5 1.5 1.5zm0-6c.831 0 1.5-.669 1.5-1.5s-.669-1.5-1.5-1.5-1.5.669-1.5 1.5.669 1.5 1.5 1.5zm0-6c.831 0 1.5-.669 1.5-1.5s-.669-1.5-1.5-1.5-1.5.669-1.5 1.5.669 1.5 1.5 1.5zm6-12c-.831 0-1.5.669-1.5 1.5s.669 1.5 1.5 1.5 1.5-.669 1.5-1.5-.669-1.5-1.5-1.5zm8 23v-1c0-.275-.225-.5-.5-.5h-9c-.275 0-.5.225-.5.5v1c0 .275.225.5.5.5h9c.275 0 .5-.225.5-.5zm0-6v-1c0-.275-.225-.5-.5-.5h-9c-.275 0-.5.225-.5.5v1c0 .275.225.5.5.5h9c.275 0 .5-.225.5-.5zm0-6v-1c0-.275-.225-.5-.5-.5h-9c-.275 0-.5.225-.5.5v1c0 .275.225.5.5.5h9c.275 0 .5-.225.5-.5z" fill="#F5CA85"/></svg>