<svg width="14" height="14" fill="none" xmlns="http://www.w3.org/2000/svg"><path d="M13.808 5.45a.656.656 0 010 .929l-3.403 3.403a.656.656 0 01-.928 0l-.619-.619a.656.656 0 010-.928l.155-.155L7.93 6.998 5.714 9.214l.155.154a.875.875 0 010 1.238L2.73 13.744a.875.875 0 01-1.237 0L.256 12.506a.875.875 0 010-1.237l3.138-3.138a.875.875 0 011.237 0l.155.155L7.002 6.07 5.919 4.987l-.155.155a.656.656 0 01-.928 0l-.618-.619a.656.656 0 010-.928L7.62.192a.656.656 0 01.928 0l.618.619a.656.656 0 010 .928l-.155.155 3.094 3.094.155-.155a.656.656 0 01.928 0l.619.618z" fill="#F5CA85"/></svg>