<svg width="14" height="14" fill="none" xmlns="http://www.w3.org/2000/svg"><path d="M13.716 2.519c.17.064.284.227.284.41v1.009a.437.437 0 01-.438.437H.438A.437.437 0 010 3.937V2.929a.47.47 0 01.284-.41L6.693.057C6.775.026 6.913 0 7 0c.088 0 .225.025.307.056l6.41 2.463zM1.75 5.25H3.5v4.375h2.625V5.25h1.75v4.375H10.5V5.25h1.75v4.375h.438c.241 0 .437.196.437.438v1.312H.875v-1.313c0-.241.196-.437.438-.437h.437V5.25zm11.813 7c.241 0 .437.196.437.438v.874a.438.438 0 01-.438.438H.438A.438.438 0 010 13.562v-.874c0-.242.196-.438.438-.438h13.124z" fill="#F5CA85"/></svg>