<svg width="87" height="35" fill="none" xmlns="http://www.w3.org/2000/svg"><path d="M43.038 1.736c-.753.777-.899 1.604-.316 1.604.39 0 2.042-1.896 1.896-2.163-.292-.462-.754-.292-1.58.559zm.997.947c-.486.51-.73.972-.656 1.191.097.268-.73 1.191-2.65 3.014-1.555 1.433-2.818 2.746-2.818 2.916 0 .146.17.437.389.607.34.268.534.146 1.506-.996 2.114-2.503 4.253-4.617 4.666-4.617.219 0 .705-.34 1.094-.73l.704-.728-.729-.73-.729-.729-.777.802zm1.701 1.702c-.802.826-1.02 1.628-.462 1.628.462 0 2.187-1.871 2.017-2.163-.292-.462-.753-.292-1.555.535z" fill="#283E70"/><path d="M0 20.594v14.338h87V6.256H70.96c-14.094 0-16.038.048-16.038.364s1.895.365 15.553.365h15.553V33.96H.729V6.985h15.675c13.779 0 15.674-.049 15.674-.365s-1.944-.364-16.039-.364H0v14.338z" fill="#000"/><path d="M43.5 10.12c0 .121-.219.267-.486.34-.267.073-.486.292-.486.51 0 .34.462.39 3.378.39 2.357 0 3.45-.098 3.572-.292.097-.146.049-.34-.097-.39-.17-.048-.462-.242-.632-.437-.389-.389-5.249-.51-5.249-.121z" fill="#283E70"/><path d="M16.574 20.764l.073 3.354 1.53-.025c1.775-.024 2.795-.607 2.917-1.628.097-.778-.34-1.628-.802-1.628s-.462-.34.024-.73c.243-.218.34-.631.292-1.19-.097-1.094-.778-1.482-2.698-1.482H16.5l.074 3.329zm3.353-2.139c.51.972-.291 1.726-1.798 1.726-.875 0-.875 0-.875-1.094v-1.093h1.215c.924 0 1.264.097 1.458.461zm.195 2.746c.462.462.34 1.337-.243 1.75-.292.219-1.02.389-1.58.389h-1.045v-2.43h1.288c.705 0 1.41.121 1.58.291zm8.384-3.693c-.997.413-.608.704.656.558 1.312-.145 1.944.146 1.944.924 0 .632-.68 1.19-1.482 1.19-.462 0-.705.122-.705.365 0 .268.267.365.924.365 1.093 0 1.506.34 1.506 1.264 0 1.117-1.482 1.53-2.916.801-.9-.461-1.215-.048-.365.51.973.633 2.65.56 3.427-.17.778-.728.753-2.138-.049-2.527-.51-.267-.51-.267-.073-.826 1.313-1.604-.704-3.33-2.867-2.454zm8.068.048c-1.045 2.868-2.066 5.881-2.066 6.173 0 .729.608.17.875-.778.267-.948.267-.948 1.604-1.02l1.361-.073.34 1.02c.365 1.07.924 1.58.9.778 0-.243-.462-1.75-1.046-3.354-.704-1.944-1.19-2.94-1.458-2.989-.218-.048-.437.049-.51.243zm.996 1.701c.22.705.462 1.434.535 1.58.073.219-.219.316-1.02.316-.608 0-1.118-.024-1.118-.073 0-.049.17-.632.388-1.288.219-.656.413-1.337.486-1.507.146-.51.292-.34.73.972zm8.312-1.287c-.292.388-.754 1.044-.972 1.457-.292.535-.584.754-1.045.754-.584 0-.608-.073-.608-1.337 0-1.02-.073-1.336-.364-1.336-.316 0-.365.534-.365 3.305 0 2.527.073 3.28.316 3.207.17-.073.316-.68.364-1.604.073-1.458.098-1.506.73-1.506.534 0 .85.291 1.7 1.58.948 1.457 1.507 1.944 1.507 1.312 0-.122-.437-.9-.972-1.677-.534-.778-.972-1.555-.972-1.726 0-.486 1.167-2.332 1.58-2.503.194-.072.364-.243.364-.388 0-.486-.705-.243-1.263.461zm5.418-.414c-1.603.85-2.138 2.99-1.19 4.812 1.24 2.406 4.326 1.993 5.055-.705.559-2.114-.486-4.082-2.309-4.301-.559-.073-1.215.024-1.555.194zm2.747 1.24c1.02 1.385.437 4.107-.948 4.447-1.628.413-2.649-.656-2.649-2.722 0-1.045.122-1.41.583-1.92.827-.875 2.285-.777 3.014.195zm4.52 1.895c0 2.625.073 3.402.316 3.33.17-.073.316-.681.364-1.604l.073-1.507h3.111l.073 1.507c.049 1.166.17 1.53.437 1.53.292 0 .365-.534.438-3.134.048-1.896-.025-3.233-.195-3.403-.389-.388-.559 0-.68 1.434l-.097 1.337h-3.111v-1.458c0-1.143-.073-1.458-.364-1.458-.316 0-.365.534-.365 3.426zm8.311-.097l.073 3.354h1.798c1.24 0 1.847-.098 1.92-.316.073-.22-.34-.292-1.506-.292h-1.604v-2.406l1.263-.073c1.726-.097 1.847-.632.146-.729l-1.288-.073-.073-1.02-.073-1.021 1.507-.073c.948-.049 1.555-.194 1.628-.389.073-.218-.413-.291-1.871-.291h-1.993l.073 3.329z" fill="#000"/></svg>