<svg width="16" height="14" fill="none" xmlns="http://www.w3.org/2000/svg"><path d="M8 0c1.933 0 3.5 1.543 3.5 3.445 0 1.539-2.288 4.342-3.164 5.36a.443.443 0 01-.672 0C6.788 7.787 4.5 4.984 4.5 3.445 4.5 1.543 6.067 0 8 0zm0 4.594c.644 0 1.167-.514 1.167-1.149 0-.634-.523-1.148-1.167-1.148s-1.167.514-1.167 1.148c0 .635.523 1.149 1.167 1.149zM.56 5.904l3.294-1.297c.144.407.345.833.59 1.27v6.373L.61 13.968a.444.444 0 01-.61-.406V6.717c0-.327.25-.69.56-.813zM8 9.835c.39 0 .76-.168 1.014-.463a28.945 28.945 0 001.653-2.098V14l-5.334-1.75V7.273a28.951 28.951 0 001.653 2.098c.254.295.623.464 1.014.464zm7.39-5.427a.444.444 0 01.61.406v6.845c0 .327-.25.69-.56.812L11.557 14V6.125l3.835-1.718z" fill="#F5CA85"/></svg>