<svg width="20" height="14" fill="none" xmlns="http://www.w3.org/2000/svg"><path d="M19 0a1 1 0 011 1v12a1 1 0 01-1 1H1a1 1 0 01-1-1V1a1 1 0 011-1h18zm-.5 12.5v-11h-17v11h17zM9.25 9A.25.25 0 019 8.75v-1a.25.25 0 01.25-.25h2.5a.25.25 0 01.25.25v1a.25.25 0 01-.25.25h-2.5zm7.5-1.5a.25.25 0 01.25.25v1a.25.25 0 01-.25.25h-2.5a.25.25 0 01-.25-.25v-1a.25.25 0 01.25-.25h2.5zm-7.5-1A.25.25 0 019 6.25v-1A.25.25 0 019.25 5h7.5a.25.25 0 01.25.25v1a.25.25 0 01-.25.25h-7.5zm-5.04.554a1.282 1.282 0 01-.96-1.224c0-.679.557-1.225 1.25-1.26v-.32A.25.25 0 014.75 4h.5a.25.25 0 01.25.25v.318c.322.02.627.121.886.298a.23.23 0 01.035.349l-.377.398c-.074.08-.192.089-.288.037a.78.78 0 00-.369-.092h-.822c-.174 0-.315.122-.315.272 0 .117.09.223.221.26l1.319.357c.566.153.96.657.96 1.224 0 .679-.557 1.225-1.25 1.26v.32a.25.25 0 01-.25.25h-.5a.25.25 0 01-.25-.25v-.318a1.764 1.764 0 01-.886-.297.232.232 0 01-.035-.35l.376-.398a.237.237 0 01.289-.037.78.78 0 00.368.092h.823c.174 0 .315-.122.315-.272 0-.117-.091-.224-.222-.26L4.21 7.054z" fill="#F5CA85"/></svg>