<svg width="10" height="14" fill="none" xmlns="http://www.w3.org/2000/svg"><path d="M2.535 13.862c-3.383-3.551-3.378-9.304 0-12.85a.432.432 0 01.553-.066l1.688 1.108a.53.53 0 01.21.399.6.6 0 01-.031.174L4.11 4.843a.483.483 0 01-.415.295c-.013 0-.032 0-.045-.002l-1.453-.153a7.606 7.606 0 000 4.909l1.453-.153a.5.5 0 01.045-.002c.167 0 .353.132.415.295l.844 2.216a.592.592 0 01.032.174.529.529 0 01-.21.399l-1.688 1.108A.509.509 0 012.85 14a.502.502 0 01-.317-.138zm3.9-11.251c.309.548.309 1.23 0 1.778a.305.305 0 01-.487.07l-.156-.156a.343.343 0 01-.058-.394 1.08 1.08 0 00.096-.41c0-.12-.043-.303-.096-.409a.344.344 0 01.058-.394l.156-.157a.305.305 0 01.487.07v.002zM8.825.117c1.567 1.958 1.566 4.81 0 6.766a.304.304 0 01-.456.025l-.151-.152a.34.34 0 01-.024-.448 4.55 4.55 0 000-5.617.34.34 0 01.024-.448l.15-.152a.305.305 0 01.458.026zM7.63 1.347a3.644 3.644 0 010 4.307.304.304 0 01-.465.036l-.152-.153a.34.34 0 01-.033-.436c.69-.945.69-2.258 0-3.203a.34.34 0 01.033-.435l.152-.153a.304.304 0 01.465.035v.001z" fill="#F5CA85"/></svg>