<svg xmlns="http://www.w3.org/2000/svg" width="32" height="32"><path d="M31.565 27.666a1.507 1.507 0 01-.006 2.124l-1.769 1.769a1.495 1.495 0 01-2.119 0l-6.232-6.231a1.5 1.5 0 01-.438-1.063v-1.019A12.938 12.938 0 0113 25.996c-7.182 0-13.001-5.818-13.001-12.999S5.819-.002 13-.002s13.001 5.818 13.001 12.999c0 3.019-1.025 5.793-2.75 7.999h1.019c.4 0 .781.156 1.063.438zm-18.564-5.669c4.978 0 9-4.028 9-8.999a8.994 8.994 0 00-9-8.999c-4.978 0-9 4.028-9 8.999a8.995 8.995 0 009 8.999zM13.002 7a4.615 4.615 0 014.615 4.614c0 2.061-3.016 5.816-4.172 7.179-.096.114-.294.207-.443.207s-.348-.093-.443-.207c-1.156-1.363-4.172-5.119-4.172-7.179A4.614 4.614 0 0113.002 7zm0 6a1.5 1.5 0 10-.001-3.001A1.5 1.5 0 0013.002 13z"/></svg>