<svg width="120" height="120" fill="none" xmlns="http://www.w3.org/2000/svg"><path d="M60 0c33.147 0 60 26.857 60 60s-26.857 60-60 60S0 93.143 0 60 26.857 0 60 0z" fill="#202F39"/><path d="M50.56 100.88c-1.227 0-2.587-.107-4.08-.32-1.493-.16-2.747-.373-3.76-.64v-4.56c1.76.533 3.867.8 6.32.8 4.213 0 7.84-.667 10.88-2 3.093-1.333 5.44-3.147 7.04-5.44 1.653-2.293 2.48-4.8 2.48-7.52 0-3.627-1.12-6.427-3.36-8.4-2.187-2.027-5.573-3.067-10.16-3.12l-2.48.64c-1.76.533-2.613.773-2.56.72l-1.36-4.24a30.026 30.026 0 006.32-1.92c3.307-1.387 5.973-3.227 8-5.52 2.027-2.347 3.04-4.827 3.04-7.44 0-3.04-.907-5.253-2.72-6.64-1.76-1.44-4.027-2.16-6.8-2.16-2.4 0-4.72.427-6.96 1.28-2.187.853-4.08 1.893-5.68 3.12l-2.16-3.6c1.493-1.493 3.867-2.933 7.12-4.32 3.307-1.44 6.667-2.16 10.08-2.16 4.853 0 8.773 1.067 11.76 3.2 2.987 2.08 4.48 5.28 4.48 9.6 0 3.787-1.493 7.227-4.48 10.32s-6.533 5.36-10.64 6.8c.533-.053 1.28-.08 2.24-.08 3.147 0 5.92.587 8.32 1.76 2.4 1.173 4.24 2.773 5.52 4.8 1.333 1.973 2 4.213 2 6.72 0 3.893-1.173 7.387-3.52 10.48-2.347 3.093-5.68 5.493-10 7.2-4.267 1.76-9.227 2.64-14.88 2.64z" fill="#fff"/></svg>