<svg width="120" height="120" fill="none" xmlns="http://www.w3.org/2000/svg"><path d="M60 0c33.147 0 60 26.857 60 60s-26.857 60-60 60S0 93.143 0 60 26.857 0 60 0z" fill="#202F39"/><path d="M39.76 84.64c4.907-2.773 9.413-5.947 13.52-9.52 4.107-3.627 7.36-7.36 9.76-11.2 2.453-3.84 3.68-7.467 3.68-10.88 0-2.933-.88-5.253-2.64-6.96-1.76-1.76-4.267-2.64-7.52-2.64-3.04 0-5.653.613-7.84 1.84a28.445 28.445 0 00-6.08 4.4l-2.56-3.6c1.867-2.187 4.533-4.16 8-5.92 3.467-1.813 7.173-2.72 11.12-2.72 3.733 0 6.88.693 9.44 2.08 2.56 1.333 4.453 3.093 5.68 5.28 1.227 2.187 1.84 4.587 1.84 7.2 0 5.28-2.533 10.72-7.6 16.32-5.067 5.547-11.413 10.533-19.04 14.96l24.8-1.84 2.8-6.88 4.08.8L79.12 88H40.96l-1.2-3.36z" fill="#fff"/></svg>