<svg width="25" height="25" fill="none" xmlns="http://www.w3.org/2000/svg"><path d="M22.18 2.435c2.173 1.791 3.378 5.756 2.565 12.034-.783 6.083-5.617 6.67-6.471 6.933-.371.112-3.62.883-7.852.546a78.066 78.066 0 01-1.534 1.645c-.82.835-1.323 1.612-2.178 1.358-.711-.205-.67-1.226-.67-1.226l.005-2.519H6.04c-6.183-1.65-6.096-7.733-6.024-10.98.072-3.246.736-5.868 2.62-7.655C6.024-.378 12.98.018 12.98.018c5.9.024 8.547 1.845 9.2 2.417h.002zm.716 11.575c.685-5.239-.252-8.813-2.09-10.307-.556-.479-2.945-1.904-7.934-1.924 0 0-5.905-.366-8.773 2.1-1.596 1.493-2.137 3.715-2.193 6.425-.056 2.71-.365 7.89 4.876 9.266-.005 0-.005 0 0 0 0 0-.02 3.848-.02 4.184-.005.513.293.538.566.278.834-.796 3.511-3.857 3.511-3.857 3.588.22 6.446-.454 6.755-.547.72-.22 4.639-.542 5.303-5.62v.002zm-7.156-3.945c.02.42-.644.449-.664.029-.057-1.074-.588-1.597-1.678-1.656-.443-.024-.402-.654.036-.63 1.437.074 2.235.855 2.307 2.257h-.001zm1.045.552c.052-2.07-1.313-3.69-3.903-3.871-.437-.03-.391-.66.046-.63 2.986.205 4.577 2.153 4.521 4.516-.005.42-.675.4-.664-.015zm2.42.654c.004.42-.664.425-.664.005-.031-3.98-2.827-6.147-6.22-6.172-.437-.004-.437-.63 0-.63 3.794.025 6.848 2.51 6.883 6.797zm-.582 4.79v.008c-.556.928-1.597 1.953-2.668 1.626l-.01-.015c-1.086-.288-3.645-1.538-5.26-2.758a13.14 13.14 0 01-2.184-2.07 15.755 15.755 0 01-1.585-2.275c-1.097-1.88-1.339-2.719-1.339-2.719-.345-1.015.73-2.002 1.714-2.529h.01c.474-.234.927-.156 1.23.191 0 0 .64.723.912 1.079.258.332.602.864.783 1.162.313.532.118 1.074-.19 1.298l-.619.47c-.313.238-.272.683-.272.683s.917 3.285 4.34 4.116c0 0 .469.039.72-.26l.495-.585c.237-.293.808-.479 1.37-.18.756.405 1.72 1.035 2.358 1.606.36.278.443.703.196 1.152h-.001z" fill="#59267C"/></svg>