<svg width="42" height="25" fill="none" xmlns="http://www.w3.org/2000/svg"><path d="M41.043 1.697c-.577 2.68-6.182 10.586-6.191 10.593-.483.781-.679 1.172 0 2.046.266.375 6.168 5.983 7.04 8.71.383 1.297-.28 1.954-1.59 1.954H35.71c-1.746 0-2.261-1.399-5.38-4.523-2.73-2.633-3.898-2.976-4.577-2.976-1.466 0-1.201.492-1.201 5.71 0 1.133-.358 1.789-3.282 1.789-4.866 0-10.215-2.961-14.01-8.422C1.56 8.58 0 2.525 0 1.306 0 .62.266.001 1.576.001h4.592c1.177 0 1.621.515 2.073 1.789 2.245 6.562 6.035 12.295 7.595 12.295.585 0 .849-.274.849-1.758v-6.78c-.17-3.125-1.824-3.382-1.824-4.492 0-.508.437-1.055 1.17-1.055h7.22c.966 0 1.294.524 1.294 1.695v9.116c0 .977.444 1.32.733 1.32.585 0 1.076-.343 2.144-1.413 3.306-3.704 5.645-9.413 5.645-9.413C33.355.617 33.893 0 35.063 0h4.592c1.387 0 1.676.719 1.387 1.695l.001.002z" fill="#07F"/></svg>