<svg width="25" height="25" fill="none" xmlns="http://www.w3.org/2000/svg"><path d="M21.255 3.634C23.594 5.977 25 9.085 25 12.395c0 6.83-5.681 12.388-12.506 12.388h-.005c-2.076 0-4.113-.519-5.92-1.507L0 25l1.758-6.418a12.397 12.397 0 01-1.652-6.194C.106 5.558 5.664 0 12.496 0c3.308 0 6.423 1.29 8.76 3.633zm-8.76 19.062c5.674 0 10.412-4.62 10.412-10.302.005-2.75-1.188-5.334-3.13-7.282A10.207 10.207 0 0012.5 2.094c-5.681 0-10.302 4.62-10.302 10.295 0 1.947.541 3.839 1.574 5.48l.245.391-1.037 3.8 3.894-1.021.374.223a10.28 10.28 0 005.246 1.434zm5.647-7.713c.307.151.513.229.585.368.079.129.079.748-.178 1.473-.257.725-1.49 1.384-2.088 1.474-.982.144-1.752.072-3.716-.776-3.108-1.345-5.134-4.47-5.29-4.677-.151-.206-1.261-1.68-1.261-3.203 0-1.524.798-2.272 1.083-2.584.285-.307.62-.385.826-.385.206 0 .412 0 .591.01.19.011.446-.072.697.531.258.62.876 2.143.955 2.299.079.156.129.335.028.541-.592 1.183-1.228 1.144-.91 1.691 1.2 2.059 2.394 2.773 4.213 3.683.307.156.491.129.67-.079.184-.212.776-.903.982-1.216.206-.314.413-.263.697-.157.285.101 1.809.848 2.116 1.005v.002z" fill="#25D366"/></svg>